<svg width="23" height="23" viewBox="0 0 23 23" fill="none" xmlns="http://www.w3.org/2000/svg">
<path d="M17.8481 12.3517C17.7367 12.2402 17.6045 12.1517 17.4589 12.0913C17.3133 12.031 17.1573 11.9999 16.9997 11.9999C16.8421 11.9999 16.686 12.031 16.5405 12.0913C16.3949 12.1517 16.2626 12.2402 16.1513 12.3517L14.2385 14.2645C13.3517 14.0005 11.6969 13.4005 10.6482 12.3517C9.59937 11.3029 8.99938 9.64814 8.73538 8.76135L10.6482 6.84857C10.7597 6.73723 10.8482 6.60498 10.9085 6.45941C10.9689 6.31383 11 6.15778 11 6.00018C11 5.84258 10.9689 5.68653 10.9085 5.54095C10.8482 5.39538 10.7597 5.26313 10.6482 5.15179L5.84821 0.351838C5.73686 0.240304 5.60462 0.15182 5.45904 0.0914472C5.31347 0.031075 5.15741 0 4.99982 0C4.84222 0 4.68616 0.031075 4.54059 0.0914472C4.39501 0.15182 4.26277 0.240304 4.15142 0.351838L0.897057 3.60621C0.441061 4.0622 0.184263 4.68859 0.193863 5.32819C0.221463 7.03697 0.673859 12.9721 5.35141 17.6497C10.029 22.3272 15.9641 22.7784 17.6741 22.8072H17.7077C18.3413 22.8072 18.9401 22.5576 19.3937 22.104L22.648 18.8497C22.7596 18.7383 22.8481 18.6061 22.9084 18.4605C22.9688 18.3149 22.9999 18.1589 22.9999 18.0013C22.9999 17.8437 22.9688 17.6876 22.9084 17.542C22.8481 17.3965 22.7596 17.2642 22.648 17.1529L17.8481 12.3517ZM17.6957 20.406C16.1981 20.3808 11.0742 19.9788 7.04819 15.9517C3.00904 11.9125 2.61784 6.77057 2.59384 5.30299L4.99982 2.89701L8.10298 6.00018L6.5514 7.55177C6.41036 7.6927 6.30665 7.86657 6.24967 8.05764C6.19268 8.24872 6.1842 8.45098 6.225 8.64615C6.2538 8.78415 6.9582 12.0565 8.95018 14.0485C10.9422 16.0405 14.2145 16.7449 14.3525 16.7737C14.5476 16.8156 14.75 16.8078 14.9413 16.751C15.1325 16.6942 15.3064 16.5901 15.4469 16.4485L16.9997 14.8969L20.1029 18.0001L17.6957 20.406V20.406Z" fill="white"/>
</svg>
