<svg width="72" height="72" viewBox="0 0 72 72" fill="none" xmlns="http://www.w3.org/2000/svg">
<g clip-path="url(#clip0_2699_683)">
<path d="M25.875 19.125C25.875 19.746 25.3699 20.25 24.75 20.25C24.1301 20.25 23.625 19.746 23.625 19.125H21.375C21.375 20.9858 22.8892 22.5 24.75 22.5C26.6108 22.5 28.125 20.9858 28.125 19.125H25.875Z" fill="black"/>
<path d="M67.5 5.625H31.8555C30.5899 2.96887 27.8865 1.125 24.7534 1.125H19.6211C9.42188 1.125 1.125 9.423 1.125 19.6211C1.125 26.0404 4.37512 31.9039 9.819 35.307L10.125 35.4994V41.013C4.4775 44.7851 1.125 51.0367 1.125 57.8632V70.875H64.125C65.3659 70.875 66.375 69.8659 66.375 68.625V66.375C66.375 65.1341 65.3659 64.125 64.125 64.125H57.0611L55.5615 59.625H67.5C69.3607 59.625 70.875 58.1107 70.875 56.25V9C70.875 7.13925 69.3607 5.625 67.5 5.625ZM3.375 19.6211C3.375 10.6639 10.6639 3.375 19.6211 3.375H24.7534C27.8528 3.375 30.375 5.89612 30.375 9.0045C30.375 10.5052 29.79 11.916 28.7291 12.9757C27.6694 14.0344 26.2609 14.6183 24.7624 14.6183C24.7612 14.6183 24.759 14.6183 24.7579 14.6183C24.381 14.6183 24.0019 14.6182 23.6227 14.6171V14.616C23.6216 14.616 23.6194 14.616 23.6171 14.616C23.0198 14.616 22.4584 14.3843 22.0354 13.9624C21.609 13.5371 21.375 12.9724 21.375 12.3705C21.375 11.133 22.383 10.125 23.6205 10.125V7.875C21.141 7.875 19.125 9.89213 19.125 12.3705C19.125 13.1749 19.3511 13.9388 19.7449 14.6149C18.522 14.6149 17.4915 14.6149 16.8728 14.616C16.8716 14.616 16.8694 14.616 16.8671 14.616C16.2697 14.616 15.7084 14.3843 15.2854 13.9624C14.859 13.5371 14.625 12.9724 14.625 12.3705C14.625 11.133 15.633 10.125 16.8705 10.125H16.875L16.8705 7.875C14.391 7.875 12.375 9.89213 12.375 12.3705C12.375 12.7091 12.4211 13.0387 12.4931 13.3616C11.016 14.4967 10.125 16.2574 10.125 18.1597V19.1396C7.61175 19.332 5.625 21.438 5.625 23.9996C5.625 25.5251 6.354 26.9831 7.57463 27.9L10.125 29.8125V32.805C5.87925 29.754 3.375 24.9019 3.375 19.6211ZM28.125 25.1798V30.375H25.875C24.6341 30.375 23.625 29.3659 23.625 28.125H21.375C21.375 30.6068 23.3932 32.625 25.875 32.625H27.504C27.3094 32.9603 27.0866 33.2798 26.8054 33.561C25.9571 34.4093 24.8299 34.875 23.6295 34.875C23.6284 34.875 23.6261 34.875 23.625 34.875H16.875V37.125H19.125V42.435L12.375 40.7475V28.6875L8.92575 26.1C8.26762 25.6073 7.875 24.8209 7.875 23.9996C7.875 22.5529 9.05288 21.375 10.4996 21.375H12.375V18.1597C12.375 17.0978 12.816 16.1044 13.5641 15.3956C13.6114 15.4463 13.6462 15.5059 13.6957 15.5554C14.544 16.4014 15.669 16.8671 16.8671 16.8671H16.8784C18.2531 16.8638 21.5921 16.866 24.7556 16.8694H24.7624C25.8109 16.8694 26.8279 16.6658 27.7684 16.2765C28.5885 17.8436 30.1297 21.1309 30.3491 24.0682L28.125 25.1798ZM17.6839 44.3925L15.9469 45.6953L14.2099 43.524L17.6839 44.3925ZM3.375 57.8632C3.375 51.9435 6.21563 46.5109 11.0171 43.1348L15.5531 48.8047L20.2612 45.2734C20.8856 45.7414 21.4673 46.2589 22.0039 46.8225C21.6157 47.2264 21.375 47.772 21.375 48.375V59.625C21.375 60.8659 22.3841 61.875 23.625 61.875H25.875V68.625H12.375V57.1815C12.375 54.828 11.4592 52.6162 9.79537 50.9546L8.20463 52.5454C9.44325 53.784 10.125 55.4299 10.125 57.1815V68.625H3.375V57.8632ZM41.625 31.1355V28.125H41.7386C42.0638 29.7214 43.0807 31.0545 44.4476 31.8487L44.3452 32.1559C44.2181 32.5384 43.8941 32.8252 43.4981 32.904C42.9604 33.012 42.4395 33.1616 41.9287 33.3304C41.7454 32.6216 41.625 31.8915 41.625 31.1355ZM39.375 18.531C39.375 15.1357 42.1369 12.375 45.531 12.375H53.469C56.8631 12.375 59.625 15.1357 59.625 18.531C59.625 18.918 59.5811 19.3061 59.508 19.6875C58.8701 19.3399 58.1501 19.125 57.375 19.125H56.7495C55.9688 17.7862 54.5332 16.875 52.875 16.875V19.125C54.1159 19.125 55.125 20.1341 55.125 21.375V27C55.125 28.8608 53.6107 30.375 51.75 30.375H47.25C45.3893 30.375 43.875 28.8608 43.875 27V21.375C43.875 20.1341 44.8841 19.125 46.125 19.125V16.875C44.4668 16.875 43.0312 17.7862 42.2505 19.125H41.625C40.8499 19.125 40.1299 19.3399 39.492 19.6875C39.4189 19.305 39.375 18.918 39.375 18.531ZM57.375 31.1355C57.375 31.8915 57.2535 32.6216 57.0701 33.3293C56.5594 33.1605 56.0385 33.0109 55.5007 32.9029C55.1059 32.8241 54.7819 32.5373 54.6548 32.1548L54.5524 31.8476C55.9193 31.0545 56.9362 29.7214 57.2614 28.125H57.375V31.1355ZM57.375 25.875V21.375C58.6159 21.375 59.625 22.3841 59.625 23.625C59.625 24.8659 58.6159 25.875 57.375 25.875ZM41.625 25.875C40.3841 25.875 39.375 24.8659 39.375 23.625C39.375 22.3841 40.3841 21.375 41.625 21.375V25.875ZM43.9402 35.109C45.126 34.8727 46.0991 34.0121 46.4805 32.8669L46.584 32.5575C46.8045 32.5845 47.0216 32.625 47.25 32.625H51.75C51.9784 32.625 52.1955 32.5845 52.4171 32.5575L52.5206 32.8669C52.902 34.0132 53.8763 34.8727 55.0609 35.109C55.4625 35.1889 55.8517 35.2969 56.2354 35.4184C55.4377 36.8348 54.261 38.0227 52.7974 38.8159C52.5454 37.8461 51.6712 37.125 50.625 37.125H48.375C47.3288 37.125 46.4546 37.8461 46.2038 38.8148C44.7401 38.0216 43.5634 36.8348 42.7658 35.4173C43.1494 35.2969 43.5386 35.1889 43.9402 35.109ZM64.125 48.375H50.625V43.875C51.8659 43.875 52.875 42.8659 52.875 41.625V41.2762C55.251 40.2829 57.15 38.5121 58.3211 36.3218C61.8154 38.2725 64.125 42.0019 64.125 46.1666V48.375ZM48.375 41.625V39.375H50.625L50.6261 41.625H48.375ZM46.125 41.2762V41.625C46.125 42.8659 47.1341 43.875 48.375 43.875V48.375H34.875V46.1666C34.875 42.0019 37.1846 38.2725 40.6789 36.3218C41.85 38.5121 43.749 40.2829 46.125 41.2762ZM47.9813 64.125H35.2687C35.019 63.4196 34.875 62.6647 34.875 61.875V59.625H48.375V61.875C48.375 62.6647 48.231 63.4196 47.9813 64.125ZM41.625 68.625C39.6326 68.625 37.845 67.752 36.6075 66.375H46.6414C45.405 67.752 43.6174 68.625 41.625 68.625ZM37.125 57.375V50.625H48.375V57.375H37.125ZM34.875 50.625V57.375H32.625V50.625H34.875ZM32.9209 64.125H28.125V60.9615C28.5683 59.7397 29.4007 58.7014 30.4729 57.996C30.7451 58.9331 31.6012 59.625 32.625 59.625V61.875C32.625 62.6535 32.7341 63.4039 32.9209 64.125ZM30.375 55.4861C29.5425 55.8619 28.7843 56.3749 28.125 56.9936V51.0086C28.7843 51.6263 29.5425 52.1404 30.375 52.5161V55.4861ZM25.875 59.625H23.625V48.375H25.875V59.625ZM28.125 68.625V66.375H33.8423C34.3339 67.2221 34.9605 67.9815 35.6917 68.625H28.125ZM64.125 68.625H47.5582C48.2895 67.9815 48.915 67.2221 49.4077 66.375H64.125V68.625ZM54.6885 64.125H50.328C50.5159 63.4039 50.625 62.6535 50.625 61.875V59.625H53.1889L54.6885 64.125ZM68.625 56.25C68.625 56.871 68.1199 57.375 67.5 57.375H50.625V50.625H68.625V56.25ZM68.625 48.375H66.375V46.1666C66.375 41.0771 63.4995 36.5288 59.175 34.227C59.4641 33.2393 59.625 32.2031 59.625 31.1355V27.4995C60.9637 26.7188 61.875 25.2833 61.875 23.625C61.875 22.8544 61.6624 22.1389 61.3193 21.5044C61.677 20.5571 61.875 19.5424 61.875 18.531C61.875 13.896 58.104 10.125 53.469 10.125H45.531C40.896 10.125 37.125 13.896 37.125 18.531C37.125 19.5435 37.323 20.5571 37.6807 21.5044C37.3376 22.1389 37.125 22.8544 37.125 23.625C37.125 25.2833 38.0363 26.7188 39.375 27.4995V31.1355C39.375 32.2031 39.5359 33.2393 39.825 34.227C35.5005 36.5288 32.625 41.0771 32.625 46.1666V48.375C31.6012 48.375 30.7451 49.0669 30.4729 50.004C29.358 49.2705 28.4951 48.1804 28.0665 46.8945L27.8111 46.125H24.3855C23.5058 45.0585 22.4966 44.1135 21.375 43.3035V37.125H23.6239H23.6306C25.4306 37.125 27.1226 36.4253 28.395 35.1529C29.6719 33.8783 30.375 32.1806 30.375 30.375V26.5702L32.625 25.4452V24.75C32.625 21.0814 30.6754 16.9504 29.7045 15.12C29.9171 14.9479 30.123 14.7645 30.3199 14.5687C31.806 13.0826 32.625 11.106 32.625 8.99663C32.625 8.61525 32.5879 8.24288 32.5361 7.875H67.5C68.1199 7.875 68.625 8.379 68.625 9V48.375Z" fill="black"/>
<path d="M52.3429 22.383L52.5161 22.4415L53.2339 20.3085L53.0572 20.25C51.6026 19.764 50.625 18.4084 50.625 16.875H48.375C48.375 19.3793 49.9703 21.5921 52.3429 22.383Z" fill="black"/>
<path d="M64.125 52.875H66.375V55.125H64.125V52.875Z" fill="black"/>
<path d="M59.625 52.875H61.875V55.125H59.625V52.875Z" fill="black"/>
<path d="M55.125 52.875H57.375V55.125H55.125V52.875Z" fill="black"/>
</g>
<defs>
<clipPath id="clip0_2699_683">
<rect width="69.75" height="69.75" fill="white" transform="translate(1.125 1.125)"/>
</clipPath>
</defs>
</svg>
