<svg width="72" height="72" viewBox="0 0 72 72" fill="none" xmlns="http://www.w3.org/2000/svg">
<path d="M70.8 28.8H50.4V25.2C50.4 24.816 50.2163 24.4551 49.9056 24.2292L37.2 14.9892V10.8H50.4C51.0627 10.8 51.6 10.2627 51.6 9.6V2.4C51.6 1.7373 51.0627 1.2 50.4 1.2H37.2C37.2 0.5373 36.6627 0 36 0C35.3373 0 34.8 0.5373 34.8 1.2V14.9892L22.0944 24.2292C21.7838 24.4551 21.6 24.816 21.6 25.2V28.8H1.2C0.5373 28.8 0 29.3373 0 30V70.8C0 71.4627 0.5373 72 1.2 72H70.8C71.4627 72 72 71.4627 72 70.8V30C72 29.3373 71.4627 28.8 70.8 28.8ZM37.2 3.6H49.2V8.4H37.2V3.6ZM21.6 69.6H2.4V31.2H21.6V69.6ZM40.8 69.6H31.2V57.6H40.8V69.6ZM48 69.6H43.2V56.4C43.2 55.7373 42.6627 55.2 42 55.2H30C29.3373 55.2 28.8 55.7373 28.8 56.4V69.6H24V25.8108L36 17.0832L48 25.8108V69.6ZM69.6 69.6H50.4V31.2H69.6V69.6Z" fill="black"/>
<path d="M10.8 34.8008H6V37.2008H10.8V34.8008Z" fill="black"/>
<path d="M18 34.8008H13.2V37.2008H18V34.8008Z" fill="black"/>
<path d="M10.8 39.5996H6V41.9996H10.8V39.5996Z" fill="black"/>
<path d="M18 39.5996H13.2V41.9996H18V39.5996Z" fill="black"/>
<path d="M10.8 44.4004H6V46.8004H10.8V44.4004Z" fill="black"/>
<path d="M18 44.4004H13.2V46.8004H18V44.4004Z" fill="black"/>
<path d="M10.8 49.1992H6V51.5992H10.8V49.1992Z" fill="black"/>
<path d="M18 49.1992H13.2V51.5992H18V49.1992Z" fill="black"/>
<path d="M10.8 54H6V56.4H10.8V54Z" fill="black"/>
<path d="M18 54H13.2V56.4H18V54Z" fill="black"/>
<path d="M58.8 34.8008H54V37.2008H58.8V34.8008Z" fill="black"/>
<path d="M66 34.8008H61.2V37.2008H66V34.8008Z" fill="black"/>
<path d="M58.8 39.5996H54V41.9996H58.8V39.5996Z" fill="black"/>
<path d="M66 39.5996H61.2V41.9996H66V39.5996Z" fill="black"/>
<path d="M58.8 44.4004H54V46.8004H58.8V44.4004Z" fill="black"/>
<path d="M66 44.4004H61.2V46.8004H66V44.4004Z" fill="black"/>
<path d="M58.8 49.1992H54V51.5992H58.8V49.1992Z" fill="black"/>
<path d="M66 49.1992H61.2V51.5992H66V49.1992Z" fill="black"/>
<path d="M58.8 54H54V56.4H58.8V54Z" fill="black"/>
<path d="M66 54H61.2V56.4H66V54Z" fill="black"/>
<path d="M27.6001 35.9996C27.6053 40.6366 31.3631 44.3944 36.0001 44.3996C40.6393 44.3996 44.4001 40.6388 44.4001 35.9996C44.4001 31.3604 40.6393 27.5996 36.0001 27.5996C31.3609 27.5996 27.6001 31.3604 27.6001 35.9996ZM42.0001 35.9996C42.0001 39.3133 39.3137 41.9996 36.0001 41.9996C32.6864 41.9996 30.0001 39.3133 30.0001 35.9996C30.004 32.6876 32.6881 30.0035 36.0001 29.9996C39.3137 29.9996 42.0001 32.686 42.0001 35.9996Z" fill="black"/>
<path d="M34.7999 34.7992H32.3999V37.1992H37.1999V31.1992H34.7999V34.7992Z" fill="black"/>
</svg>
