<svg width="41" height="40" viewBox="0 0 41 40" fill="none" xmlns="http://www.w3.org/2000/svg">
<path d="M0.5 20C0.5 8.95431 9.45431 0 20.5 0C31.5457 0 40.5 8.95431 40.5 20C40.5 31.0457 31.5457 40 20.5 40C9.45431 40 0.5 31.0457 0.5 20Z" fill="white"/>
<path d="M20.5009 15.9532L19.1365 14.5566L19.1359 14.556C18.788 14.2018 18.373 13.9204 17.9152 13.7283C17.4573 13.5362 16.9658 13.4372 16.4692 13.4372C15.9727 13.4372 15.4811 13.5362 15.0233 13.7283C14.5655 13.9203 14.1505 14.2017 13.8027 14.5559C13.0887 15.2808 12.6885 16.2575 12.6885 17.275C12.6885 18.2926 13.0887 19.2693 13.8028 19.9943L13.8031 19.9946L20.2781 26.5508L20.5005 26.776L20.7228 26.5508L27.1978 19.9946L27.1981 19.9943C27.9122 19.2693 28.3125 18.2926 28.3125 17.275C28.3125 16.2575 27.9123 15.2809 27.1983 14.5559C26.8506 14.2015 26.4357 13.92 25.9778 13.7279C25.5201 13.5359 25.0286 13.4372 24.5322 13.4375C24.5319 13.4375 24.5317 13.4375 24.5315 13.4375L24.5317 13.75M20.5009 15.9532L21.8578 14.5695L21.8586 14.5687L22.0817 14.7875M20.5009 15.9532L21.857 14.5704M20.5009 15.9532L21.857 14.5704M24.5317 13.75C24.0746 13.7493 23.622 13.8409 23.201 14.0192C22.7801 14.1974 22.3994 14.4587 22.0817 14.7875M24.5317 13.75C24.9868 13.7496 25.4373 13.8401 25.8569 14.0161C26.2766 14.1921 26.6569 14.4501 26.9755 14.775L24.5317 13.75ZM22.0817 14.7875L21.857 14.5704M22.0817 14.7875L21.857 14.5704M24.5315 12.8125L24.5316 12.8125C25.1115 12.8127 25.6856 12.9283 26.2204 13.1526C26.7551 13.3769 27.2399 13.7054 27.6463 14.119C28.4752 14.9629 28.9397 16.0984 28.9397 17.2813C28.9397 18.4639 28.4754 19.5993 27.6467 20.4431C27.6466 20.4432 27.6464 20.4434 27.6463 20.4435L20.5005 27.6802L13.3547 20.4435C13.3545 20.4434 13.3544 20.4433 13.3543 20.4432C12.5256 19.5994 12.0613 18.464 12.0613 17.2813C12.0613 16.0985 12.5257 14.9629 13.3545 14.1191C13.7611 13.7058 14.2459 13.3774 14.7806 13.1533C15.3154 12.9292 15.8894 12.8138 16.4692 12.8138C17.049 12.8138 17.623 12.9292 18.1578 13.1533C18.6926 13.3774 19.1773 13.7058 19.5839 14.1191L19.5848 14.12L20.2785 14.82L20.5005 15.0439L20.7224 14.82L21.4162 14.12L21.4173 14.1188C21.8233 13.7047 22.3079 13.3759 22.8427 13.1516C23.3774 12.9273 23.9516 12.812 24.5315 12.8125Z" fill="#BDBDBD" stroke="#252B42" stroke-width="0.625"/>
</svg>
