<svg width="19" height="20" viewBox="0 0 19 20" fill="none" xmlns="http://www.w3.org/2000/svg">
<path d="M4.49772 12.1384L3.13104 18.0564C3.08872 18.2356 3.10143 18.4234 3.1675 18.5953C3.23357 18.7671 3.34993 18.9151 3.50139 19.0198C3.65285 19.1245 3.83237 19.1811 4.0165 19.1822C4.20062 19.1833 4.3808 19.1288 4.53349 19.0259L9.52783 15.6964L14.5222 19.0259C14.6784 19.1297 14.8627 19.1831 15.0502 19.1789C15.2377 19.1748 15.4194 19.1134 15.5709 19.0029C15.7225 18.8924 15.8365 18.7382 15.8978 18.5609C15.9591 18.3837 15.9646 18.1919 15.9136 18.0115L14.236 12.1412L18.3966 8.39701C18.5298 8.27702 18.625 8.12061 18.6703 7.94712C18.7156 7.77362 18.709 7.59065 18.6515 7.42083C18.5939 7.25102 18.4878 7.1018 18.3463 6.99164C18.2048 6.88148 18.0342 6.81521 17.8554 6.80102L12.6263 6.3846L10.3634 1.37558C10.2913 1.21429 10.174 1.07733 10.0257 0.981225C9.87745 0.885122 9.70453 0.833984 9.52783 0.833984C9.35114 0.833984 9.17822 0.885122 9.02995 0.981225C8.88168 1.07733 8.76439 1.21429 8.69223 1.37558L6.42942 6.3846L1.20027 6.8001C1.02457 6.81402 0.856613 6.87826 0.716475 6.98514C0.576337 7.09201 0.469957 7.237 0.410062 7.40275C0.350167 7.56851 0.339292 7.748 0.37874 7.91977C0.418188 8.09155 0.506287 8.24831 0.632498 8.37133L4.49772 12.1384ZM7.11459 8.17045C7.27831 8.15755 7.43555 8.10085 7.56982 8.00628C7.70408 7.91171 7.81044 7.78276 7.87773 7.63295L9.52783 3.98144L11.1779 7.63295C11.2452 7.78276 11.3516 7.91171 11.4859 8.00628C11.6201 8.10085 11.7774 8.15755 11.9411 8.17045L15.5843 8.45938L12.5841 11.1597C12.3236 11.3945 12.2199 11.7559 12.3153 12.0935L13.4646 16.1155L10.0378 13.8307C9.88741 13.7298 9.71036 13.6758 9.52921 13.6758C9.34806 13.6758 9.17101 13.7298 9.0206 13.8307L5.43972 16.2183L6.40282 12.0485C6.43813 11.8952 6.43339 11.7353 6.38906 11.5843C6.34472 11.4333 6.26228 11.2962 6.14966 11.1863L3.3631 8.46947L7.11459 8.17045Z" fill="#F3CD03"/>
</svg>
