<svg width="17" height="16" viewBox="0 0 17 16" fill="none" xmlns="http://www.w3.org/2000/svg">
<g clip-path="url(#clip0_2690_6573)">
<path d="M1 9.90039C1.13261 9.90039 1.25979 9.95307 1.35355 10.0468C1.44732 10.1406 1.5 10.2678 1.5 10.4004V12.9004C1.5 13.1656 1.60536 13.42 1.79289 13.6075C1.98043 13.795 2.23478 13.9004 2.5 13.9004H14.5C14.7652 13.9004 15.0196 13.795 15.2071 13.6075C15.3946 13.42 15.5 13.1656 15.5 12.9004V10.4004C15.5 10.2678 15.5527 10.1406 15.6464 10.0468C15.7402 9.95307 15.8674 9.90039 16 9.90039C16.1326 9.90039 16.2598 9.95307 16.3536 10.0468C16.4473 10.1406 16.5 10.2678 16.5 10.4004V12.9004C16.5 13.4308 16.2893 13.9395 15.9142 14.3146C15.5391 14.6897 15.0304 14.9004 14.5 14.9004H2.5C1.96957 14.9004 1.46086 14.6897 1.08579 14.3146C0.710714 13.9395 0.5 13.4308 0.5 12.9004V10.4004C0.5 10.2678 0.552678 10.1406 0.646447 10.0468C0.740215 9.95307 0.867392 9.90039 1 9.90039Z" fill="#737373"/>
<path d="M8.1459 11.854C8.19234 11.9006 8.24752 11.9375 8.30827 11.9627C8.36901 11.9879 8.43413 12.0009 8.4999 12.0009C8.56567 12.0009 8.63079 11.9879 8.69153 11.9627C8.75228 11.9375 8.80745 11.9006 8.8539 11.854L11.8539 8.854C11.9478 8.76011 12.0005 8.63278 12.0005 8.5C12.0005 8.36722 11.9478 8.23989 11.8539 8.146C11.76 8.05211 11.6327 7.99937 11.4999 7.99937C11.3671 7.99937 11.2398 8.05211 11.1459 8.146L8.9999 10.293V1.5C8.9999 1.36739 8.94722 1.24021 8.85345 1.14645C8.75969 1.05268 8.63251 1 8.4999 1C8.36729 1 8.24011 1.05268 8.14635 1.14645C8.05258 1.24021 7.9999 1.36739 7.9999 1.5V10.293L5.8539 8.146C5.76001 8.05211 5.63268 7.99937 5.4999 7.99937C5.36712 7.99937 5.23979 8.05211 5.1459 8.146C5.05201 8.23989 4.99927 8.36722 4.99927 8.5C4.99927 8.63278 5.05201 8.76011 5.1459 8.854L8.1459 11.854Z" fill="#737373"/>
</g>
<defs>
<clipPath id="clip0_2690_6573">
<rect width="16" height="16" fill="white" transform="translate(0.5)"/>
</clipPath>
</defs>
</svg>
