<svg width="19" height="20" viewBox="0 0 19 20" fill="none" xmlns="http://www.w3.org/2000/svg">
<path d="M18.5969 7.41866C18.5392 7.24885 18.4331 7.09964 18.2916 6.98945C18.1501 6.87926 17.9795 6.81292 17.8007 6.79861L12.5716 6.3831L10.3087 1.37409C10.2367 1.21276 10.1195 1.07573 9.97125 0.979546C9.82303 0.883361 9.65014 0.832128 9.47344 0.832031C9.29675 0.831934 9.1238 0.882977 8.97548 0.978999C8.82715 1.07502 8.70979 1.21192 8.63755 1.37317L6.37473 6.3831L1.14558 6.79861C0.969887 6.81253 0.801925 6.87677 0.661787 6.98364C0.52165 7.09052 0.41527 7.23551 0.355374 7.40126C0.295479 7.56701 0.284605 7.74651 0.324053 7.91828C0.3635 8.09005 0.451599 8.24682 0.57781 8.36983L4.44212 12.1369L3.07544 18.0549C3.03394 18.234 3.04724 18.4215 3.11361 18.593C3.17999 18.7645 3.29637 18.9121 3.44765 19.0166C3.59894 19.1211 3.77815 19.1777 3.96202 19.1791C4.1459 19.1805 4.32595 19.1266 4.47881 19.0244L9.47315 15.6949L14.4675 19.0244C14.6237 19.1282 14.808 19.1816 14.9955 19.1774C15.183 19.1733 15.3647 19.1119 15.5162 19.0014C15.6678 18.8909 15.7819 18.7367 15.8431 18.5595C15.9044 18.3822 15.9099 18.1904 15.8589 18.01L14.1813 12.1397L18.3419 8.39551C18.6143 8.1497 18.7143 7.76629 18.5969 7.41866V7.41866Z" fill="#F3CD03"/>
</svg>
