<?xml version="1.0" encoding="iso-8859-1"?>
<!-- Generator: Adobe Illustrator 17.1.0, SVG Export Plug-In . SVG Version: 6.00 Build 0)  -->
<!DOCTYPE svg PUBLIC "-//W3C//DTD SVG 1.1//EN" "http://www.w3.org/Graphics/SVG/1.1/DTD/svg11.dtd">
<svg version="1.1" id="Capa_1" xmlns="http://www.w3.org/2000/svg" xmlns:xlink="http://www.w3.org/1999/xlink" x="0px" y="0px"
	 viewBox="0 0 405.284 405.284" style="enable-background:new 0 0 405.284 405.284;" xml:space="preserve">
<g>
	<g>
		<path d="M345.93,326.886c-0.012,0-0.024,0-0.037,0L158.6,325.971c-36.029,0-65.37-29.341-65.37-65.407
			s29.341-65.407,65.407-65.407c8.511,0,16.841,1.638,24.606,4.798c3.521-42.628,39.34-76.241,82.862-76.241
			c45.847,0,83.146,37.299,83.146,83.146c0,0.465-0.005,0.934-0.015,1.408c31.197,1.72,56.049,27.644,56.049,59.263
			C405.284,300.26,378.658,326.886,345.93,326.886z M158.637,210.158c-27.794,0-50.407,22.612-50.407,50.407
			s22.612,50.407,50.407,50.407l187.306,0.915c24.451-0.007,44.341-19.901,44.341-44.354c0-24.457-19.897-44.354-44.354-44.354
			c-1.225,0-2.524,0.067-4.089,0.21c-2.258,0.207-4.482-0.617-6.06-2.24c-1.579-1.623-2.339-3.872-2.07-6.12
			c0.363-3.036,0.54-5.708,0.54-8.168c0-37.576-30.57-68.146-68.146-68.146s-68.146,30.57-68.146,68.146
			c0,1.426,0.109,2.915,0.224,4.491l0.036,0.488c0.207,2.857-1.232,5.582-3.707,7.022c-2.476,1.442-5.555,1.347-7.938-0.244
			C178.283,213.083,168.622,210.158,158.637,210.158z"/>
	</g>
	<g>
		<path d="M74.183,240.984h-14.81C26.635,240.984,0,214.35,0,181.611v-0.774c0-30.354,23.15-55.668,52.703-57.631
			c10.52-0.698,20.925,1.545,30.121,6.399c13.183-31.774,44.722-52.413,79.895-51.152c23.457,0.839,45.761,12.387,61.194,31.684
			c2.587,3.235,2.063,7.955-1.172,10.542c-3.235,2.587-7.956,2.062-10.542-1.172c-12.701-15.881-30.932-25.38-50.017-26.063
			c-31.601-1.134-59.636,19.294-68.193,49.667c-0.679,2.41-2.516,4.322-4.896,5.098c-2.379,0.775-4.99,0.313-6.959-1.236
			c-8.082-6.355-18.182-9.48-28.437-8.799C31.998,139.614,15,158.355,15,180.837v0.774c0,24.467,19.906,44.373,44.373,44.373h14.81
			c4.142,0,7.5,3.358,7.5,7.5S78.325,240.984,74.183,240.984z"/>
	</g>
</g>
<g>
</g>
<g>
</g>
<g>
</g>
<g>
</g>
<g>
</g>
<g>
</g>
<g>
</g>
<g>
</g>
<g>
</g>
<g>
</g>
<g>
</g>
<g>
</g>
<g>
</g>
<g>
</g>
<g>
</g>
</svg>
