<?xml version="1.0" encoding="iso-8859-1"?>
<!-- Generator: Adobe Illustrator 19.0.0, SVG Export Plug-In . SVG Version: 6.00 Build 0)  -->
<svg version="1.1" id="Layer_1" xmlns="http://www.w3.org/2000/svg" xmlns:xlink="http://www.w3.org/1999/xlink" x="0px" y="0px"
	 viewBox="0 0 485 485" style="enable-background:new 0 0 485 485;" xml:space="preserve">
<g>
	<g>
		<path d="M461.1,162.2L461.1,162.2l-260.6-42.9c-3.2-0.5-6.4,0.5-8.7,2.8l-70.1,69.7V83.6c18.7-4.5,32.6-21.3,32.6-41.2
			C154.3,19,135.2,0,111.7,0S69.1,19,69.1,42.4c0,20,13.9,36.7,32.6,41.2V465H25.5c-5.5,0-10,4.5-10,10s4.5,10,10,10h172.6
			c5.5,0,10-4.5,10-10s-4.5-10-10-10h-76.3V239.7l70.1,69.1c1.9,1.9,4.4,2.9,7,2.9c0.5,0,1.1,0,1.6-0.1l260.6-42.9
			c4.8-0.8,8.4-5,8.4-9.9v-86.7C469.5,167.1,466,163,461.1,162.2z M89.2,42.4C89.2,30,99.3,20,111.8,20c12.5,0,22.6,10,22.6,22.4
			s-10.1,22.4-22.6,22.4S89.2,54.8,89.2,42.4z M188.9,277.7l-62.9-62l62.9-62.6V277.7z M275.2,278.9l-66.3,10.9V140.9l66.3,10.9
			V278.9z M362.3,264.6l-67.1,11.1V155.1l67.1,11.1V264.6z M449.5,250.2l-67.1,11.1v-91.8l67.1,11V250.2z"/>
	</g>
</g>
<g>
</g>
<g>
</g>
<g>
</g>
<g>
</g>
<g>
</g>
<g>
</g>
<g>
</g>
<g>
</g>
<g>
</g>
<g>
</g>
<g>
</g>
<g>
</g>
<g>
</g>
<g>
</g>
<g>
</g>
</svg>
